<?xml version="1.0" encoding="utf-8"?>
<!-- Generator: Adobe Illustrator 16.0.0, SVG Export Plug-In . SVG Version: 6.00 Build 0)  -->
<!DOCTYPE svg PUBLIC "-//W3C//DTD SVG 1.1//EN" "http://www.w3.org/Graphics/SVG/1.1/DTD/svg11.dtd">
<svg version="1.1" xmlns="http://www.w3.org/2000/svg" xmlns:xlink="http://www.w3.org/1999/xlink" x="0px" y="0px" width="46px"
	 height="46px" viewBox="0 0 46 46" enable-background="new 0 0 46 46" xml:space="preserve">
<g id="Capa_1" display="none">
	<path display="inline" fill="none" stroke="#000000" stroke-width="2.7" stroke-linecap="round" stroke-linejoin="round" d="
		M22.5,37C29.955,37,36,30.956,36,23.5S29.955,10,22.5,10C15.044,10,9,16.044,9,23.5S15.044,37,22.5,37z"/>
	<path display="inline" fill="none" stroke="#000000" stroke-width="2.7" stroke-linecap="round" stroke-linejoin="round" d="
		M22.5,28.9c2.982,0,5.4-2.418,5.4-5.4s-2.418-5.4-5.4-5.4s-5.4,2.417-5.4,5.4S19.518,28.9,22.5,28.9z"/>
	<path display="inline" fill="none" stroke="#000000" stroke-width="2.7" stroke-linecap="round" stroke-linejoin="round" d="
		M26.32,27.32l5.725,5.725"/>
	<path display="inline" fill="none" stroke="#000000" stroke-width="2.7" stroke-linecap="round" stroke-linejoin="round" d="
		M12.956,33.045l5.724-5.725"/>
	<path display="inline" fill="none" stroke="#000000" stroke-width="2.7" stroke-linecap="round" stroke-linejoin="round" d="
		M26.32,19.68l5.725-5.724"/>
	<path display="inline" fill="none" stroke="#000000" stroke-width="2.7" stroke-linecap="round" stroke-linejoin="round" d="
		M26.32,19.68l4.766-4.766"/>
	<path display="inline" fill="none" stroke="#000000" stroke-width="2.7" stroke-linecap="round" stroke-linejoin="round" d="
		M12.956,13.956l5.724,5.724"/>
</g>
<g id="Capa_2">
	<path fill="#040013" d="M38.628,14.281c-0.551-0.812-1.344-1.159-2.165-1.429c-0.609-0.201-1.196-0.493-1.85-0.55
		c-0.253-0.22-0.59-0.087-0.884-0.217c-0.309-0.137-0.696-0.081-1.039-0.157c-0.693-0.152-1.388-0.271-2.1-0.254
		c-0.44-0.23-0.925-0.047-1.372-0.139c-1.039-0.213-2.086-0.094-3.129-0.116c-1.037-0.022-2.076-0.016-3.113,0.001
		c-0.352,0.005-0.699,0.098-1.05,0.119c-0.366,0.022-0.741-0.034-1.101,0.021c-0.196,0.03-0.383,0.118-0.597,0.121
		c-0.204,0.003-0.403-0.053-0.62,0.068c-0.167,0.092-0.425,0.004-0.622,0.062c-0.568,0.167-1.161,0.194-1.735,0.344
		c-0.428,0.112-0.874,0.186-1.308,0.296c-0.197,0.051-0.42,0.046-0.59,0.14c-0.351,0.192-0.667,0.161-1.012-0.083
		c0-0.18,0-0.412,0-0.667c0.188-0.156,0.401-0.285,0.693-0.308c0.36-0.029,0.672-0.294,1.055-0.266
		c0.123-0.183,0.313-0.084,0.472-0.116c0.157-0.032,0.309-0.111,0.466-0.123c0.578-0.041,1.119-0.312,1.709-0.264
		c0.282-0.218,0.626-0.053,0.917-0.141c0.479-0.146,0.978-0.032,1.438-0.139c0.551-0.128,1.107-0.013,1.634-0.125
		c0.808-0.174,1.611-0.089,2.416-0.109c0.821-0.02,1.645-0.017,2.466,0.001c0.351,0.008,0.698,0.097,1.05,0.119
		c0.344,0.022,0.715-0.073,1.033,0.023c0.462,0.142,0.92,0.077,1.378,0.115c0.222,0.019,0.439,0.093,0.661,0.123
		c0.203,0.027,0.396,0.05,0.602,0.109c0.329,0.095,0.694,0.088,1.045,0.132c0.694,0.088,1.347,0.339,2.038,0.439
		c0.278,0.041,0.591,0.115,0.87,0.233c0.294,0.125,0.574,0.312,0.88,0.374c0.316,0.063,0.549,0.25,0.82,0.378
		c0.538,0.255,1.054,0.538,1.356,1.091c0.05,0.091,0.148,0.155,0.226,0.23c0.177-0.042,0.352-0.115,0.53-0.122
		c0.453-0.018,0.912-0.042,1.361,0.001c1.057,0.103,2.023,0.437,2.816,1.189c0.473,0.449,0.881,0.941,1.142,1.541
		c0.218,0.5,0.4,1.005,0.472,1.564c0.047,0.372,0.09,0.741,0.107,1.117c0.038,0.86-0.127,1.69-0.396,2.499
		c-0.375,1.135-0.951,2.166-1.792,3.017c-0.738,0.748-1.641,1.274-2.641,1.602c-0.324,0.106-0.664,0.218-1.028,0.195
		c-0.177-0.011-0.388-0.101-0.544,0.09c-0.021,0.024-0.09,0.043-0.113,0.027c-0.395-0.261-0.833-0.063-1.246-0.127
		c-0.242-0.038-0.521-0.025-0.715-0.145c-0.232-0.145-0.295-0.024-0.349,0.123c-0.145,0.396-0.253,0.803-0.397,1.199
		c-0.355,0.98-0.673,1.982-1.303,2.832c-0.239,0.323-0.383,0.737-0.788,0.929c-0.054,0.025-0.098,0.115-0.109,0.182
		c-0.126,0.725-0.426,1.343-0.951,1.884c-0.574,0.593-1.195,1.124-1.922,1.488c-0.584,0.292-1.198,0.556-1.841,0.722
		c-0.434,0.112-0.863,0.232-1.315,0.288c-0.285,0.035-0.61,0.037-0.888,0.193c-0.082,0.047-0.203,0.038-0.307,0.038
		c-0.604,0.003-1.207,0.002-1.804,0.002c-0.435-0.573-0.435-0.589-0.019-1.01c0.682-0.055,1.34-0.065,1.984-0.167
		c1.017-0.164,2.043-0.318,2.987-0.771c0.472-0.226,0.949-0.426,1.39-0.729c0.331-0.228,0.563-0.521,0.814-0.84
		c-0.29,0.116-0.588,0.218-0.87,0.352c-0.567,0.271-1.17,0.441-1.778,0.56c-0.953,0.185-1.896,0.473-2.887,0.399
		c-0.771,0.245-1.564,0.099-2.347,0.125c-0.633,0.021-1.253-0.149-1.894-0.15c-0.385,0-0.791-0.16-1.188-0.242
		c-0.104-0.022-0.247-0.129-0.268-0.221c-0.042-0.186-0.042-0.393,0-0.578c0.021-0.092,0.176-0.226,0.261-0.22
		c0.31,0.024,0.64-0.132,0.935,0.087c0.043,0.032,0.119,0.023,0.181,0.03c0.458,0.044,0.915,0.104,1.374,0.126
		c0.453,0.021,0.908,0.004,1.362,0.004c0.368,0,0.736,0.017,1.103-0.003c0.59-0.03,1.195-0.01,1.758-0.152
		c0.376-0.095,0.762-0.106,1.139-0.209c0.366-0.101,0.711-0.341,1.118-0.284c1.255-0.572,2.589-0.998,3.558-2.076
		c0.405-0.452,0.733-0.96,0.931-1.499c0.238-0.657,0.544-1.291,0.724-1.974c0.23-0.875,0.536-1.729,0.75-2.611
		c0.127-0.524,0.304-1.043,0.428-1.571c0.116-0.494,0.251-0.983,0.354-1.48c0.098-0.471,0.128-0.962,0.328-1.418
		c0.112-0.255,0.126-0.556,0.168-0.838c0.053-0.348,0.02-0.729,0.151-1.041c0.156-0.374,0.022-0.788,0.237-1.136
		c0.023-0.039-0.014-0.116-0.029-0.218c-0.302,0.117-0.594,0.195-0.851,0.336c-0.681,0.374-1.413,0.576-2.164,0.733
		c-0.414,0.087-0.818,0.22-1.231,0.313c-0.358,0.081-0.723,0.182-1.085,0.187c-0.262,0.003-0.479,0.119-0.724,0.15
		c-0.244,0.03-0.52-0.124-0.729,0.122c-0.019,0.021-0.083,0.003-0.126,0.003c-0.217,0-0.435-0.017-0.648,0.005
		c-0.201,0.021-0.396,0.111-0.596,0.119c-0.454,0.019-0.928-0.074-1.357,0.028c-0.423,0.102-0.832,0.095-1.25,0.104
		c-0.454,0.011-0.908,0.002-1.363,0.002c-0.973,0-1.947-0.027-2.919,0.012c-0.474,0.019-0.915-0.111-1.374-0.149
		c-0.393-0.033-0.552-0.488-0.311-0.815c0.051-0.069,0.121-0.124,0.212-0.215c0.831,0,1.703-0.083,2.549,0.028
		c0.616,0.081,1.237,0.169,1.829,0.08c0.98-0.149,1.964-0.018,2.932-0.129c0.504-0.058,1.035,0.006,1.497-0.138
		c0.468-0.146,0.97,0.057,1.394-0.229c0.43,0.095,0.829-0.097,1.242-0.146c0.355-0.042,0.72-0.088,1.066-0.233
		c0.464-0.194,0.977-0.243,1.464-0.376c0.892-0.244,1.696-0.629,2.448-1.142C38.38,14.719,38.477,14.485,38.628,14.281z
		 M39.643,14.668c-0.043,0.325,0.059,0.625-0.133,0.896c-0.06,0.085,0.123,0.217,0.262,0.189c0.099-0.02,0.248-0.088,0.292-0.047
		c0.204,0.196,0.444,0.094,0.667,0.122c0.103,0.013,0.211,0.011,0.307,0.045c0.76,0.271,1.464,0.616,1.889,1.362
		c0.417,0.73,0.616,1.514,0.586,2.345c-0.006,0.165-0.156,0.34-0.111,0.529c0.054,0.227-0.119,0.389-0.139,0.596
		c-0.049,0.52-0.333,0.958-0.614,1.36c-0.293,0.418-0.7,0.764-1.089,1.104c-0.287,0.252-0.669,0.362-1.02,0.508
		c-0.66,0.272-1.355,0.407-2.066,0.314c-0.214-0.028-0.409-0.188-0.623-0.087c-0.09,0.332-0.172,0.642-0.262,0.976
		c0.373,0.092,0.777,0.234,1.193,0.283c0.732,0.085,1.453-0.054,2.16-0.251c0.828-0.231,1.524-0.726,2.104-1.311
		c0.549-0.554,0.98-1.232,1.271-1.99c0.282-0.733,0.509-1.479,0.509-2.124c0-0.475,0-0.951,0-1.426c0-0.108,0.028-0.226-0.005-0.322
		c-0.305-0.874-0.626-1.755-1.402-2.331c-0.571-0.425-1.185-0.811-1.956-0.752c-0.079,0.006-0.187,0.006-0.238-0.04
		c-0.213-0.186-0.5-0.14-0.67-0.066C40.26,14.679,39.979,14.636,39.643,14.668z M38.164,22.836c0.551,0,1.005,0.009,1.458-0.006
		c0.112-0.004,0.222-0.086,0.336-0.123c0.972-0.313,1.868-1.101,2.141-2.121c0.265-0.142,0.01-0.462,0.213-0.625
		c0-0.463,0.068-0.94-0.017-1.387c-0.111-0.584-0.31-0.764-0.798-1.214c-0.37-0.341-0.799-0.49-1.289-0.495
		c-0.259-0.002-0.518,0-0.763,0c-0.323,0.363-0.196,0.832-0.313,1.242c-0.204,0.726-0.233,1.5-0.426,2.23
		c-0.128,0.488-0.161,0.995-0.36,1.47C38.225,22.104,38.228,22.453,38.164,22.836z"/>
	<path fill="#040013" d="M2.742,22.364c0.147,0.507,0.209,1.009,0.434,1.425c0.297,0.552,0.437,1.161,0.743,1.708
		c0.509,0.909,0.988,1.826,1.697,2.61c0.237,0.262,0.433,0.571,0.703,0.805c0.775,0.668,1.599,1.229,2.575,1.612
		c0.735,0.289,1.491,0.474,2.233,0.714c0.261,0.085,0.56,0.128,0.842,0.158c0.628,0.066,1.261,0.11,1.892,0.133
		c0.648,0.021,1.298,0.004,1.954,0.004c0.043,0.086,0.074,0.187,0.136,0.261c0.095,0.113,0.264,0.214,0.179,0.373
		c-0.083,0.155-0.217,0.32-0.37,0.393c-0.196,0.093-0.433,0.125-0.655,0.137c-0.41,0.02-0.822-0.002-1.232,0.007
		c-0.294,0.007-0.544-0.19-0.856-0.141c-0.274,0.045-0.576,0.066-0.839-0.003c-0.612-0.159-1.249-0.188-1.854-0.375
		c-0.595-0.186-1.229-0.284-1.782-0.552c-0.778-0.376-1.568-0.745-2.255-1.303c-0.593-0.481-1.124-1-1.605-1.596
		c-0.378-0.468-0.698-0.968-1.051-1.449c-0.459-0.628-0.73-1.347-1.074-2.026c-0.323-0.637-0.51-1.345-0.749-2.023
		c-0.12-0.341-0.236-0.683-0.332-1.03c-0.074-0.266,0.055-0.503,0.364-0.664c0.247-0.128,0.518-0.213,0.775-0.32
		c0.636-0.265,1.311-0.387,1.965-0.578c0.582-0.17,2.503-0.264,3.05-0.121c0.376,0.099,0.785,0.011,1.136,0.229
		c0.076,0.048,0.208,0.007,0.379,0.007c-0.071-0.446,0.104-0.888-0.145-1.304c0-0.822,0-1.644,0-2.465
		c0.226-0.304,0.094-0.655,0.13-0.984c0.06-0.53,0.08-1.066,0.254-1.581c0.064-0.191,0.014-0.391,0.104-0.606
		c0.211-0.515,0.17-0.532,0.496-0.858c0.886,0.181,1.8,0.233,2.702,0.477c0.86,0.232,1.653,0.62,2.5,0.869
		c0.3,0.089,0.574,0.298,0.834,0.487c0.498,0.361,1.037,0.656,1.528,1.035c0.43,0.332,0.72,0.833,1.249,1.038
		c0.162,0.476,0.716,0.649,0.873,1.129c0.563,0.505,0.904,1.171,1.278,1.808c0.427,0.725,0.777,1.492,1.032,2.297
		c0.091,0.287,0.189,0.573,0.255,0.867c0.064,0.28,0.063,0.577,0.14,0.852c0.261,0.927,0.164,1.877,0.096,2.801
		c-0.069,0.937-0.358,1.85-0.696,2.75c-0.324,0.862-0.833,1.604-1.269,2.394c-0.101,0.182-0.298,0.311-0.472,0.484
		c0,0.431-0.087,0.904,0.023,1.327c0.117,0.446,0.072,0.878,0.107,1.315c0.026,0.313-0.084,0.567-0.311,0.783
		c-0.186,0-0.374,0-0.546,0c-0.244-0.229-0.325-0.491-0.314-0.802c0.013-0.388-0.023-0.78,0.01-1.167
		c0.033-0.386-0.097-0.742-0.146-1.112c-0.013-0.102-0.123-0.221-0.219-0.273c-0.51-0.279-1.053-0.504-1.542-0.815
		c-0.843-0.538-1.722-1.017-2.492-1.677c-0.738-0.633-1.521-1.219-2.168-1.946c-0.603-0.676-1.142-1.402-1.63-2.175
		c-0.579-0.913-0.86-1.938-1.265-2.917c-0.03-0.075-0.007-0.168-0.021-0.251c-0.081-0.449-0.162-0.465-0.616-0.617
		c-1.182-0.394-2.394-0.199-3.594-0.25c-0.266,0.169-0.586,0.059-0.849,0.148c-0.288,0.098-0.592,0.121-0.873,0.239
		C3.328,22.164,3.061,22.249,2.742,22.364z M10.427,14.629c0,0.176,0.037,0.301-0.006,0.383c-0.169,0.318-0.122,0.655-0.121,0.988
		c0,0.335-0.17,0.633-0.143,0.985c0.088,1.125-0.124,2.264,0.141,3.384c-0.093,0.429,0.11,0.826,0.141,1.244
		c0.022,0.295,0.155,0.583,0.225,0.876c0.236,0.987,0.672,1.884,1.186,2.754c0.157,0.266,0.299,0.532,0.511,0.762
		c0.271,0.294,0.572,0.575,0.773,0.914c0.448,0.751,1.254,1.116,1.805,1.752c0.175,0.203,0.394,0.388,0.627,0.517
		c0.519,0.287,0.966,0.679,1.477,0.976c0.551,0.32,1.1,0.644,1.673,0.979c0.036-0.341-0.064-0.641-0.083-0.937
		c-0.044-0.668-0.193-1.314-0.306-1.964c-0.056-0.322-0.071-0.653-0.152-0.972c-0.114-0.449-0.226-0.9-0.348-1.348
		c-0.154-0.563-0.314-1.124-0.478-1.685c-0.254-0.865-0.61-1.693-0.93-2.534c-0.319-0.839-0.758-1.596-1.225-2.349
		c-0.655-1.055-1.535-1.928-2.347-2.854c-0.232-0.265-0.543-0.46-0.811-0.695c-0.414-0.363-0.817-0.738-1.236-1.095
		C10.728,14.656,10.601,14.667,10.427,14.629z M19.793,30.495c0.085,0,0.157,0.017,0.167-0.003c0.159-0.278,0.283-0.581,0.47-0.839
		c0.303-0.42,0.312-0.952,0.582-1.384c0.069-0.111-0.012-0.339,0.069-0.417c0.226-0.216,0.074-0.513,0.227-0.76
		c0.116-0.188-0.053-0.538,0.042-0.756c0.119-0.272,0.103-0.53,0.108-0.798c0.007-0.333-0.062-0.659-0.104-0.986
		c-0.063-0.491-0.165-0.967-0.264-1.45c-0.231-1.13-0.796-2.096-1.34-3.079c-0.28-0.507-0.61-0.969-0.995-1.41
		c-0.502-0.576-1.682-1.884-2.306-2.259c-0.944-0.567-1.885-1.155-2.934-1.521c-0.366-0.127-0.75-0.201-1.143-0.304
		c0.619,0.596,1.209,1.149,1.78,1.722c0.266,0.267,0.499,0.567,0.736,0.86c0.378,0.468,0.771,0.927,1.115,1.42
		c0.75,1.075,1.23,2.297,1.819,3.459c0.168,0.934,0.708,1.762,0.782,2.724c0.322,0.464,0.333,1.032,0.476,1.55
		c0.145,0.524,0.313,1.065,0.302,1.628c0.199,0.26,0.027,0.613,0.156,0.841c0.147,0.261,0.005,0.523,0.117,0.731
		c0.132,0.244,0.106,0.483,0.118,0.73C19.777,30.295,19.786,30.396,19.793,30.495z"/>
	<path fill="#040013" d="M37.437,28.254c0.007-0.015,0.022-0.053,0.044-0.085c0.091-0.135,0.161-0.348,0.283-0.382
		c0.233-0.068,0.49-0.026,0.721,0.109c0.87,0.516,1.664,1.13,2.321,1.899c0.422,0.495,0.743,1.084,0.878,1.706
		c0.117,0.539,0.074,1.13-0.129,1.681c-0.368,1-1.013,1.756-1.859,2.409c-0.75,0.578-1.55,1.036-2.389,1.45
		c-0.722,0.355-1.484,0.601-2.244,0.843c-0.713,0.226-1.428,0.446-2.18,0.549c-0.371,0.052-0.75,0.188-1.129,0.226
		c-0.373,0.038-0.723,0.177-1.113,0.163c-0.273-0.011-0.557,0.115-0.853,0.119c-0.307,0.003-0.612,0.094-0.92,0.115
		c-0.301,0.022-0.622-0.059-0.903,0.019c-0.609,0.167-1.221,0.103-1.831,0.113c-0.627,0.013-1.255,0.019-1.88-0.002
		c-0.373-0.014-0.742-0.098-1.114-0.12c-0.366-0.021-0.753,0.064-1.098-0.023c-0.355-0.092-0.72-0.034-1.048-0.129
		c-0.356-0.104-0.708-0.059-1.052-0.123c-0.462-0.085-0.935-0.155-1.378-0.277c-0.444-0.121-0.905-0.182-1.349-0.331
		c-0.414-0.139-0.837-0.321-1.264-0.383c-0.397-0.057-0.722-0.26-1.092-0.358c-0.362-0.096-0.688-0.32-1.042-0.451
		c-0.729-0.271-1.366-0.689-2.003-1.124c-0.25-0.171-0.419-0.457-0.677-0.546c-0.31-0.107-0.374-0.361-0.539-0.56
		c-0.124-0.149-0.272-0.278-0.41-0.415c-0.022-0.578-0.022-0.578,0.52-0.898c0.205,0.161,0.465,0.306,0.646,0.518
		c0.882,1.034,2.042,1.665,3.252,2.18c0.994,0.422,2.032,0.739,3.093,0.998c0.685,0.167,1.403,0.213,2.062,0.492
		c0.45-0.096,0.864,0.138,1.308,0.138c0.284-0.001,0.569,0.077,0.854,0.122c0.264,0.04,0.548-0.1,0.797,0.121
		c0.061,0.054,0.209,0.008,0.316,0.008c1.708,0,3.416,0.006,5.123-0.006c0.285-0.002,0.569-0.084,0.855-0.123
		c0.285-0.039,0.575,0.064,0.863-0.115c0.14-0.088,0.381,0.001,0.573-0.02c0.179-0.021,0.353-0.106,0.53-0.122
		c1.124-0.095,2.203-0.4,3.287-0.682c0.446-0.115,0.892-0.244,1.318-0.416c0.409-0.164,0.828-0.306,1.228-0.479
		c0.702-0.305,1.37-0.696,1.981-1.166c0.299-0.229,0.616-0.453,0.855-0.739c0.323-0.385,0.679-0.746,0.806-1.286
		c0.12-0.515,0.131-1.396-0.272-2.021c-0.501-0.774-1.221-1.293-1.975-1.785C37.912,28.868,37.518,28.763,37.437,28.254z"/>
</g>
</svg>
