<?xml version="1.0" encoding="utf-8"?>
<!-- Generator: Adobe Illustrator 16.0.0, SVG Export Plug-In . SVG Version: 6.00 Build 0)  -->
<!DOCTYPE svg PUBLIC "-//W3C//DTD SVG 1.1//EN" "http://www.w3.org/Graphics/SVG/1.1/DTD/svg11.dtd">
<svg version="1.1" xmlns="http://www.w3.org/2000/svg" xmlns:xlink="http://www.w3.org/1999/xlink" x="0px" y="0px" width="46px"
	 height="46px" viewBox="0 0 46 46" enable-background="new 0 0 46 46" xml:space="preserve">
<g id="Capa_1" display="none">
	<g id="Capa_1_1_">
		<path display="inline" fill="none" stroke="#000000" stroke-width="2.7" stroke-linecap="round" stroke-linejoin="round" d="
			M22.5,37C29.955,37,36,30.956,36,23.5S29.955,10,22.5,10C15.044,10,9,16.044,9,23.5S15.044,37,22.5,37z"/>
		<path display="inline" fill="none" stroke="#000000" stroke-width="2.7" stroke-linecap="round" stroke-linejoin="round" d="
			M22.5,28.9c2.982,0,5.4-2.418,5.4-5.4c0-2.982-2.418-5.4-5.4-5.4c-2.982,0-5.4,2.417-5.4,5.4C17.1,26.482,19.518,28.9,22.5,28.9z"
			/>
		<path display="inline" fill="none" stroke="#000000" stroke-width="2.7" stroke-linecap="round" stroke-linejoin="round" d="
			M26.32,27.32l5.725,5.725"/>
		<path display="inline" fill="none" stroke="#000000" stroke-width="2.7" stroke-linecap="round" stroke-linejoin="round" d="
			M12.956,33.045l5.724-5.725"/>
		<path display="inline" fill="none" stroke="#000000" stroke-width="2.7" stroke-linecap="round" stroke-linejoin="round" d="
			M26.32,19.68l5.725-5.724"/>
		<path display="inline" fill="none" stroke="#000000" stroke-width="2.7" stroke-linecap="round" stroke-linejoin="round" d="
			M26.32,19.68l4.766-4.766"/>
		<path display="inline" fill="none" stroke="#000000" stroke-width="2.7" stroke-linecap="round" stroke-linejoin="round" d="
			M12.956,13.956l5.724,5.724"/>
	</g>
	<g id="Capa_2" display="inline">
		<path fill="#040013" d="M38.628,14.281c-0.551-0.812-1.344-1.159-2.165-1.429c-0.609-0.201-1.195-0.493-1.85-0.55
			c-0.254-0.22-0.59-0.087-0.885-0.217c-0.309-0.137-0.695-0.081-1.039-0.157c-0.692-0.152-1.388-0.271-2.1-0.254
			c-0.439-0.23-0.925-0.047-1.372-0.139c-1.038-0.213-2.086-0.094-3.129-0.116c-1.037-0.022-2.075-0.016-3.113,0.001
			c-0.352,0.005-0.699,0.098-1.05,0.119c-0.366,0.022-0.741-0.034-1.101,0.021c-0.196,0.03-0.383,0.118-0.597,0.121
			c-0.204,0.003-0.403-0.053-0.62,0.068c-0.167,0.092-0.425,0.004-0.622,0.062c-0.568,0.167-1.161,0.194-1.735,0.344
			c-0.428,0.112-0.874,0.186-1.308,0.296c-0.197,0.051-0.42,0.046-0.59,0.14c-0.351,0.192-0.667,0.161-1.012-0.083
			c0-0.18,0-0.412,0-0.667c0.188-0.156,0.401-0.285,0.693-0.308c0.36-0.029,0.672-0.294,1.055-0.266
			c0.123-0.183,0.313-0.084,0.472-0.116c0.157-0.032,0.309-0.111,0.466-0.123c0.578-0.041,1.119-0.312,1.709-0.264
			c0.282-0.218,0.626-0.053,0.917-0.141c0.479-0.146,0.978-0.032,1.438-0.139c0.551-0.128,1.107-0.013,1.634-0.125
			c0.808-0.174,1.611-0.089,2.416-0.109c0.821-0.02,1.646-0.017,2.467,0.001c0.351,0.008,0.697,0.097,1.05,0.119
			c0.344,0.022,0.715-0.073,1.032,0.023c0.463,0.142,0.92,0.077,1.379,0.115c0.222,0.019,0.438,0.093,0.66,0.123
			c0.203,0.027,0.396,0.05,0.603,0.109c0.329,0.095,0.694,0.088,1.045,0.132c0.694,0.088,1.347,0.339,2.038,0.439
			c0.277,0.041,0.591,0.115,0.87,0.233c0.294,0.125,0.573,0.312,0.88,0.374c0.316,0.063,0.549,0.25,0.82,0.378
			c0.537,0.255,1.054,0.538,1.355,1.091c0.051,0.091,0.148,0.155,0.227,0.23c0.177-0.042,0.352-0.115,0.529-0.122
			c0.453-0.018,0.912-0.042,1.361,0.001c1.057,0.103,2.023,0.437,2.816,1.189c0.473,0.449,0.881,0.941,1.142,1.541
			c0.218,0.5,0.399,1.005,0.472,1.564c0.047,0.372,0.09,0.741,0.107,1.117c0.038,0.86-0.127,1.69-0.396,2.499
			c-0.375,1.135-0.951,2.167-1.791,3.017c-0.738,0.748-1.642,1.274-2.642,1.603c-0.324,0.105-0.664,0.218-1.028,0.195
			c-0.177-0.012-0.388-0.102-0.544,0.09c-0.021,0.023-0.09,0.043-0.112,0.026c-0.396-0.261-0.834-0.063-1.246-0.127
			c-0.242-0.038-0.521-0.024-0.715-0.146c-0.232-0.145-0.295-0.023-0.35,0.123c-0.145,0.396-0.253,0.804-0.396,1.199
			c-0.355,0.98-0.674,1.982-1.303,2.832c-0.24,0.323-0.384,0.737-0.789,0.93c-0.054,0.024-0.098,0.115-0.108,0.182
			c-0.126,0.725-0.427,1.343-0.951,1.884c-0.574,0.593-1.195,1.124-1.922,1.488c-0.584,0.292-1.198,0.556-1.841,0.722
			c-0.435,0.112-0.863,0.232-1.315,0.288c-0.285,0.035-0.61,0.037-0.888,0.192c-0.082,0.048-0.203,0.039-0.307,0.039
			c-0.604,0.002-1.207,0.002-1.805,0.002c-0.436-0.573-0.436-0.59-0.02-1.01c0.683-0.056,1.341-0.065,1.984-0.168
			c1.018-0.164,2.043-0.317,2.987-0.771c0.472-0.226,0.948-0.427,1.39-0.729c0.331-0.228,0.563-0.521,0.814-0.84
			c-0.29,0.116-0.588,0.219-0.87,0.352c-0.567,0.271-1.17,0.441-1.778,0.561c-0.953,0.186-1.896,0.473-2.887,0.398
			c-0.771,0.246-1.564,0.1-2.348,0.125c-0.633,0.021-1.252-0.148-1.894-0.149c-0.385,0-0.791-0.159-1.188-0.241
			c-0.104-0.022-0.247-0.129-0.268-0.222c-0.042-0.187-0.042-0.394,0-0.578c0.021-0.092,0.176-0.226,0.261-0.22
			c0.31,0.023,0.64-0.133,0.935,0.087c0.043,0.032,0.119,0.022,0.181,0.03c0.458,0.043,0.916,0.104,1.375,0.125
			c0.452,0.021,0.907,0.005,1.361,0.005c0.368,0,0.736,0.017,1.104-0.003c0.59-0.03,1.194-0.01,1.758-0.152
			c0.375-0.095,0.762-0.105,1.139-0.209c0.365-0.102,0.711-0.341,1.118-0.283c1.255-0.572,2.589-0.998,3.558-2.076
			c0.405-0.453,0.733-0.961,0.932-1.5c0.237-0.656,0.543-1.291,0.724-1.974c0.229-0.875,0.536-1.729,0.75-2.61
			c0.127-0.524,0.304-1.043,0.428-1.572c0.116-0.494,0.251-0.983,0.354-1.48c0.098-0.471,0.127-0.962,0.328-1.418
			c0.111-0.255,0.125-0.556,0.168-0.838c0.053-0.348,0.02-0.729,0.15-1.041c0.156-0.374,0.021-0.788,0.237-1.136
			c0.022-0.039-0.015-0.116-0.029-0.218c-0.302,0.117-0.594,0.195-0.851,0.336c-0.682,0.374-1.413,0.576-2.164,0.733
			c-0.414,0.087-0.818,0.22-1.23,0.313c-0.359,0.081-0.724,0.182-1.086,0.187c-0.262,0.003-0.479,0.119-0.724,0.15
			c-0.244,0.03-0.521-0.124-0.729,0.122c-0.019,0.021-0.082,0.003-0.125,0.003c-0.218,0-0.436-0.017-0.648,0.005
			c-0.201,0.021-0.396,0.111-0.596,0.119c-0.455,0.019-0.929-0.074-1.357,0.028c-0.423,0.102-0.832,0.095-1.25,0.104
			c-0.454,0.011-0.908,0.002-1.363,0.002c-0.973,0-1.947-0.027-2.919,0.012c-0.474,0.019-0.915-0.111-1.374-0.149
			c-0.393-0.033-0.552-0.488-0.311-0.815c0.051-0.069,0.121-0.124,0.212-0.215c0.831,0,1.703-0.083,2.549,0.028
			c0.616,0.081,1.237,0.169,1.829,0.08c0.98-0.149,1.964-0.018,2.932-0.129c0.504-0.058,1.035,0.006,1.497-0.138
			c0.468-0.146,0.97,0.057,1.394-0.229c0.431,0.095,0.83-0.097,1.242-0.146c0.355-0.042,0.721-0.088,1.066-0.233
			c0.464-0.194,0.977-0.243,1.464-0.376c0.892-0.244,1.696-0.629,2.448-1.142C38.38,14.719,38.477,14.485,38.628,14.281z
			 M39.643,14.668c-0.043,0.325,0.06,0.625-0.133,0.896c-0.06,0.085,0.123,0.217,0.262,0.189c0.1-0.02,0.248-0.088,0.293-0.047
			c0.203,0.196,0.443,0.094,0.666,0.122c0.104,0.013,0.211,0.011,0.308,0.045c0.76,0.271,1.464,0.616,1.889,1.362
			c0.417,0.73,0.616,1.514,0.587,2.345c-0.007,0.165-0.156,0.34-0.111,0.529c0.054,0.227-0.119,0.389-0.139,0.596
			c-0.05,0.52-0.334,0.958-0.615,1.36c-0.293,0.418-0.699,0.764-1.088,1.104c-0.287,0.252-0.67,0.362-1.021,0.509
			c-0.66,0.271-1.354,0.406-2.065,0.313c-0.215-0.028-0.41-0.188-0.623-0.087c-0.09,0.332-0.172,0.642-0.263,0.976
			c0.373,0.093,0.777,0.233,1.193,0.283c0.731,0.085,1.452-0.054,2.159-0.251c0.828-0.23,1.524-0.727,2.104-1.311
			c0.55-0.555,0.979-1.232,1.271-1.991c0.283-0.733,0.51-1.479,0.51-2.124c0-0.475,0-0.951,0-1.426c0-0.108,0.027-0.226-0.006-0.322
			c-0.305-0.874-0.625-1.755-1.401-2.331c-0.571-0.425-1.185-0.811-1.956-0.752c-0.079,0.006-0.188,0.006-0.238-0.04
			c-0.213-0.186-0.5-0.14-0.67-0.066C40.26,14.679,39.979,14.636,39.643,14.668z M38.164,22.836c0.551,0,1.005,0.009,1.458-0.006
			c0.112-0.004,0.222-0.086,0.336-0.123c0.972-0.313,1.868-1.101,2.142-2.121c0.264-0.142,0.01-0.462,0.213-0.625
			c0-0.463,0.067-0.94-0.018-1.387c-0.111-0.584-0.311-0.764-0.798-1.214c-0.37-0.341-0.799-0.49-1.289-0.495
			c-0.259-0.002-0.519,0-0.763,0c-0.323,0.363-0.196,0.832-0.313,1.242c-0.204,0.726-0.233,1.5-0.426,2.23
			c-0.128,0.488-0.161,0.995-0.36,1.47C38.225,22.104,38.229,22.453,38.164,22.836z"/>
		<path fill="#040013" d="M2.742,22.364c0.147,0.507,0.209,1.009,0.434,1.425c0.297,0.552,0.437,1.161,0.743,1.708
			c0.509,0.909,0.988,1.825,1.697,2.61c0.237,0.262,0.433,0.57,0.703,0.805c0.775,0.668,1.599,1.229,2.575,1.611
			c0.735,0.289,1.491,0.475,2.233,0.715c0.261,0.084,0.56,0.128,0.842,0.158c0.628,0.065,1.261,0.109,1.892,0.133
			c0.648,0.021,1.298,0.004,1.954,0.004c0.043,0.086,0.074,0.188,0.136,0.261c0.095,0.112,0.264,0.214,0.179,0.373
			c-0.083,0.155-0.217,0.319-0.37,0.394c-0.196,0.092-0.433,0.125-0.655,0.137c-0.41,0.02-0.822-0.002-1.232,0.007
			c-0.294,0.007-0.544-0.19-0.856-0.142c-0.274,0.045-0.576,0.066-0.839-0.002c-0.612-0.16-1.249-0.188-1.854-0.375
			c-0.595-0.187-1.229-0.285-1.782-0.553c-0.778-0.376-1.568-0.744-2.255-1.303c-0.593-0.48-1.124-1-1.605-1.596
			c-0.378-0.469-0.698-0.969-1.051-1.449c-0.459-0.629-0.73-1.348-1.074-2.025c-0.323-0.638-0.51-1.346-0.749-2.024
			c-0.12-0.341-0.236-0.683-0.332-1.03c-0.074-0.266,0.055-0.503,0.364-0.664c0.247-0.128,0.518-0.213,0.775-0.32
			c0.636-0.265,1.311-0.387,1.965-0.578c0.582-0.17,2.503-0.264,3.05-0.121c0.376,0.099,0.785,0.011,1.136,0.229
			c0.076,0.048,0.208,0.007,0.379,0.007C9.074,20.313,9.249,19.871,9,19.455c0-0.822,0-1.644,0-2.465
			c0.226-0.304,0.094-0.655,0.13-0.984c0.06-0.53,0.08-1.066,0.254-1.581c0.064-0.191,0.014-0.391,0.104-0.606
			c0.211-0.515,0.17-0.532,0.496-0.858c0.886,0.181,1.8,0.233,2.702,0.477c0.86,0.232,1.653,0.62,2.5,0.869
			c0.3,0.089,0.574,0.298,0.834,0.487c0.498,0.361,1.037,0.656,1.528,1.035c0.43,0.332,0.72,0.833,1.249,1.038
			c0.162,0.476,0.716,0.649,0.873,1.129c0.563,0.505,0.904,1.171,1.278,1.808c0.427,0.725,0.777,1.492,1.032,2.297
			c0.091,0.287,0.189,0.573,0.255,0.867c0.064,0.28,0.063,0.577,0.14,0.852c0.261,0.927,0.164,1.877,0.096,2.801
			c-0.069,0.938-0.358,1.85-0.696,2.75c-0.324,0.861-0.833,1.604-1.269,2.395c-0.101,0.182-0.298,0.311-0.472,0.483
			c0,0.431-0.087,0.903,0.023,1.327c0.117,0.445,0.072,0.878,0.107,1.314c0.026,0.313-0.084,0.567-0.311,0.783
			c-0.186,0-0.374,0-0.546,0c-0.244-0.229-0.325-0.49-0.314-0.802c0.013-0.388-0.023-0.78,0.01-1.167
			c0.033-0.387-0.097-0.742-0.146-1.111c-0.013-0.103-0.123-0.222-0.219-0.273c-0.51-0.279-1.053-0.504-1.542-0.815
			c-0.843-0.538-1.722-1.017-2.492-1.677c-0.738-0.633-1.521-1.219-2.168-1.946c-0.603-0.676-1.142-1.401-1.63-2.175
			c-0.579-0.913-0.86-1.938-1.265-2.917c-0.03-0.075-0.007-0.168-0.021-0.251c-0.081-0.449-0.162-0.465-0.616-0.617
			c-1.182-0.394-2.394-0.199-3.594-0.25c-0.266,0.169-0.586,0.059-0.849,0.148c-0.288,0.098-0.592,0.121-0.873,0.239
			C3.328,22.164,3.061,22.249,2.742,22.364z M10.427,14.629c0,0.176,0.037,0.301-0.006,0.383C10.252,15.33,10.299,15.667,10.3,16
			c0,0.335-0.17,0.633-0.143,0.985c0.088,1.125-0.124,2.264,0.141,3.384c-0.093,0.429,0.11,0.826,0.141,1.244
			c0.022,0.295,0.155,0.583,0.225,0.876c0.236,0.987,0.672,1.884,1.186,2.754c0.157,0.266,0.299,0.532,0.511,0.762
			c0.271,0.294,0.572,0.575,0.773,0.914c0.448,0.751,1.254,1.116,1.805,1.752c0.175,0.203,0.394,0.388,0.627,0.517
			c0.519,0.287,0.966,0.68,1.477,0.977c0.551,0.32,1.1,0.645,1.673,0.979c0.036-0.34-0.064-0.641-0.083-0.937
			c-0.044-0.668-0.193-1.313-0.306-1.964c-0.056-0.322-0.071-0.653-0.152-0.973c-0.114-0.449-0.226-0.899-0.348-1.348
			c-0.154-0.563-0.314-1.124-0.478-1.686c-0.254-0.864-0.61-1.692-0.93-2.533c-0.319-0.839-0.758-1.596-1.225-2.349
			c-0.655-1.055-1.535-1.928-2.347-2.854c-0.232-0.265-0.543-0.46-0.811-0.695c-0.414-0.363-0.817-0.738-1.236-1.095
			C10.728,14.656,10.601,14.667,10.427,14.629z M19.793,30.495c0.085,0,0.157,0.017,0.167-0.003c0.159-0.278,0.283-0.581,0.47-0.84
			c0.303-0.42,0.312-0.951,0.582-1.383c0.069-0.111-0.012-0.34,0.069-0.418c0.226-0.215,0.074-0.513,0.227-0.76
			c0.116-0.188-0.053-0.537,0.042-0.756c0.119-0.271,0.103-0.529,0.108-0.798c0.007-0.333-0.062-0.659-0.104-0.985
			c-0.063-0.492-0.165-0.968-0.264-1.451c-0.231-1.13-0.796-2.096-1.34-3.079c-0.28-0.507-0.61-0.969-0.995-1.41
			c-0.502-0.576-1.682-1.884-2.306-2.259c-0.944-0.567-1.885-1.155-2.934-1.521c-0.366-0.127-0.75-0.201-1.143-0.304
			c0.619,0.596,1.209,1.149,1.78,1.722c0.266,0.267,0.499,0.567,0.736,0.86c0.378,0.468,0.771,0.927,1.115,1.42
			c0.75,1.075,1.23,2.297,1.819,3.459c0.168,0.934,0.708,1.762,0.782,2.724c0.322,0.464,0.333,1.032,0.476,1.55
			c0.145,0.524,0.313,1.065,0.302,1.629c0.199,0.26,0.027,0.612,0.156,0.84c0.147,0.262,0.005,0.523,0.117,0.731
			c0.132,0.244,0.106,0.483,0.118,0.729C19.777,30.295,19.786,30.396,19.793,30.495z"/>
		<path fill="#040013" d="M37.438,28.254c0.006-0.016,0.021-0.053,0.043-0.085c0.092-0.135,0.162-0.349,0.283-0.382
			c0.233-0.068,0.49-0.025,0.721,0.109c0.871,0.516,1.664,1.129,2.322,1.898c0.422,0.495,0.742,1.084,0.877,1.706
			c0.117,0.539,0.074,1.13-0.129,1.681c-0.367,1-1.013,1.756-1.859,2.409c-0.75,0.578-1.549,1.036-2.389,1.45
			c-0.722,0.355-1.484,0.602-2.244,0.843c-0.713,0.226-1.428,0.446-2.18,0.55c-0.371,0.051-0.75,0.188-1.129,0.226
			c-0.373,0.038-0.723,0.177-1.113,0.163c-0.272-0.012-0.557,0.115-0.853,0.119c-0.308,0.002-0.612,0.094-0.92,0.115
			c-0.302,0.021-0.622-0.06-0.903,0.019c-0.609,0.167-1.221,0.103-1.831,0.112c-0.627,0.014-1.255,0.02-1.88-0.002
			c-0.373-0.014-0.742-0.098-1.114-0.119c-0.366-0.021-0.753,0.063-1.098-0.023c-0.355-0.092-0.72-0.033-1.048-0.129
			c-0.356-0.104-0.708-0.059-1.052-0.123c-0.462-0.085-0.935-0.154-1.378-0.277c-0.444-0.121-0.905-0.182-1.349-0.33
			c-0.414-0.14-0.837-0.322-1.264-0.384c-0.397-0.057-0.722-0.26-1.092-0.358c-0.362-0.096-0.688-0.319-1.042-0.451
			c-0.729-0.27-1.366-0.688-2.003-1.123c-0.25-0.172-0.419-0.457-0.677-0.547c-0.31-0.106-0.374-0.36-0.539-0.559
			c-0.124-0.15-0.272-0.279-0.41-0.416c-0.022-0.578-0.022-0.578,0.52-0.898c0.205,0.162,0.465,0.307,0.646,0.519
			c0.882,1.034,2.042,1.665,3.252,2.181c0.994,0.422,2.032,0.738,3.093,0.998c0.685,0.166,1.403,0.213,2.062,0.492
			c0.45-0.097,0.864,0.137,1.308,0.137c0.284,0,0.569,0.078,0.854,0.123c0.264,0.039,0.548-0.101,0.797,0.121
			c0.061,0.053,0.209,0.008,0.316,0.008c1.708,0,3.416,0.006,5.123-0.006c0.284-0.002,0.569-0.084,0.854-0.123
			s0.575,0.063,0.863-0.115c0.141-0.088,0.381,0,0.573-0.02c0.179-0.021,0.353-0.107,0.53-0.123c1.123-0.095,2.203-0.4,3.287-0.682
			c0.445-0.115,0.892-0.244,1.317-0.416c0.409-0.164,0.828-0.307,1.228-0.479c0.703-0.306,1.371-0.697,1.981-1.166
			c0.299-0.229,0.616-0.453,0.854-0.74c0.324-0.385,0.68-0.745,0.807-1.285c0.12-0.516,0.131-1.396-0.271-2.021
			c-0.502-0.773-1.222-1.293-1.976-1.785C37.912,28.868,37.518,28.764,37.438,28.254z"/>
	</g>
	<path display="inline" fill-rule="evenodd" clip-rule="evenodd" fill="#FEFEFE" d="M207.736,88.195
		c0.229,2.508-2.006,1.822-2.636,1.424c-1.751-1.111-3.059-1.701-3.897,0.764c-0.92,2.705-2.045,0.641-2.805,0.041
		c-2.465-1.939-3.472-4.842-4.389-7.676c-1.833-5.662-4.848-10.637-9.141-14.635c-4.31-4.014-7.372-9.053-11.395-13.836
		c-2.048,7.199-3.621,13.787-5.845,20.146c-1.338,3.828-0.304,6.424,2.422,8.822c4.001,3.521,8.66,5.465,13.995,5.838
		c1.365,0.094,3.555-0.301,3.279,1.887c-0.226,1.791-2.175,0.822-3.383,0.898c-2.34,0.15-4.789-0.436-7.086,0.67
		c0.531,1.875,1.723,1.457,2.563,1.375c9.962-0.969,19.906-0.164,29.855,0.213c1.814,0.07,3.601,0.281,4.517-2.045
		c0.975-2.477,2.702-0.416,3.656-0.016c7.01,2.949,14.607,3.268,21.903,4.551c4.807,0.846,10.07-1.49,15.266-0.91
		c2.143,0.24,4.317,0.193,6.478,0.277c-13.012,27.434-33.645,47.244-61.077,59.779c-56.484,25.809-123.555,5.883-157.16-46.371
		c-0.626-0.973-1.124-2.029-1.682-3.047c6.624-0.797,13.12-2.346,19.278-4.773c4.505-1.777,4.827,1.029,5.991,3.84
		c1.641,3.959-1.433,3.359-3.427,3.93c-0.266,0.074-0.46,0.398-0.947,0.844c1.458,1.975,5.979-1.709,5.969,3.344
		c-0.006,3.137-1.594,3.807-4.397,4.283c2.225,2.084,4.341-0.205,6.106,1.352c-1.425,1.113-4.08,0.689-4.354,3.188
		c-1.29,0.686-3.281-0.236-4.577,2.391c2.239-0.648,4.002-0.223,5.379-1.65c0.837-0.488,1.625-1.104,2.519-1.443
		c3.979-1.51,3.98-1.477,1.921-4.621c-0.263-0.4-0.489-0.9-0.521-1.367c-0.412-6.031-2.189-11.729-4.081-17.416
		c-1.18-3.547,0.195-5.66,3.987-5.455c12.078,0.65,20.308-6.408,28.659-13.646c4.839-4.193,10.797-6.762,16.567-9.557
		c3.127-1.514,4.101,1.967,7.378,2.611c-2.436-3.807-4.604-6.643-6.18-9.777c-2.83-5.629-5.302-11.438-7.931-17.168
		c-0.555-1.209-0.341-3.691-2.555-0.605c-0.762,1.063-4.436-0.854-4.819-3.598c-0.924-6.6-1.707-13.223-2.379-19.854
		c-0.497-4.904,1.727-9.008,4.163-13.063c0.956-1.591,1.81-0.876,2.84-0.484c0.362,0.125,0.989,0.442,1.053,0.354
		c0.539-0.749-0.046-1.037-0.644-1.28c-1.139-1.519-3.58-2.806-0.455-4.929c0.974,0.765,0.521,3.33,3.245,3.389
		c-2.08-3.538-0.391-5.941,1.603-8.919c5.269-7.872,11.741-14.627,18.196-21.431c7.332-7.73,16.141-12.099,27.043-11.767
		c2.725,0.083,5.195,0.562,7.612,1.86c4.563,2.452,7.318,1.531,9.586-2.963c2.379-4.716,5.116-5.542,10.829-3.211
		c-0.815,2.335-3.971-0.166-4.825,2.603c1.9,0.792,4.121-0.623,5.915,0.85c1.845,1.515,1.812,3.681,2.468,5.671
		c0.723-2.544,2.313-4.559-0.613-7.413c-1.321-1.289-6.248-6.555,0.631-9c0.094-5.042,4.073-4.558,7.503-5.234
		c-2.509-0.134-3.127-7.866-6.992-1.445c-0.09,0.15-0.9-0.033-1.322-0.196c-6.477-2.502-12.233-0.456-17.983,2.56
		c2.91-4.433,7.309-6.621,12.379-6.93c3.777-0.23,6.975-0.87,9.599-5.852c1.135,7.826,6.162,9.709,11.29,11.479
		c5.272,1.819,7.618,6.1,9.159,11.012c0.633,2.017-0.145,4.445,2.006,6.032c1.049,0.773,0.458,1.756-0.236,2.559
		c-0.217,0.251-0.384,0.613-0.659,0.738c-2.8,1.272-4.813,5.432-7.936,4.209c-2.789-1.092-0.318-5.002-1.224-7.516
		c1.646-1.722,1.152-3.56-0.063-5.423c0,1.792,0,3.584,0,5.376c-2.569,3.648-4.081-0.044-6.007-0.865
		c-1.249-2.189,0.05-5.381-2.918-6.889c1.479,2.069-2.405,6.346,3.009,6.8c-2.504,2.222-0.645,4.049,0.543,5.927
		c1.522,2.407,3.35,4.192-0.509,6.915c-2.614,1.844-4.202,5.489-7.098,7.506c-1.068,0.744-2.904,2.712-3.278-0.752
		c-0.084-0.771-1.167-1.975-1.433-1.177c-1.181,3.557-5.258-3.923-5.433,1.532c-0.055,1.688-0.315,2.434-2.152,2.296
		c-2.448-0.184-3.423-1.785-4.009-3.804c-0.329-1.136-1.517-2.888,0.282-3.302c3.839-0.883,3.598-6.399,7.877-6.5
		c-0.848-0.645-0.719-1.555-0.669-2.448c0.274-0.208,0.552-0.412,0.828-0.616c-0.085-0.115-0.17-0.229-0.254-0.345
		c-0.226,0.274-0.45,0.55-0.675,0.824c-2.897,1.387-6,2.488-8.253,4.888c-2.358,2.513-2.471-2.188-4.707-0.876
		c1.385,2.801,2.922,5.715,3.742,8.904c0.887,3.448,1.572,6.775-0.659,10.036c-1.076,1.573-1.033,3.392-0.647,5.276
		c1.706,8.357,1.399,16.839,1.479,25.3c0.015,1.521-0.853,3.343,0.878,4.582c0.231,0.186,0.587,0.578,0.675,0.525
		c0.622-0.377,0.365-0.738-0.116-1.043c-0.208-10.815,0.852-21.682-2.01-33.078c4.385,4.102,5.425,7.891,3.59,11.168
		c9.754,1.203,13.396,7.666,9.833,17.14c-1.282,3.411-2.054,7.012-3.253,10.458c-0.362,1.041-0.731,1.393,0.504,2.229
		c4.963,3.359,6.947,8.734,8.841,14.076c1.91,5.391,4.548,10.244,8.528,14.479c2.916,3.104,8.206,2.186,10.245,6.709
		c0.571,1.268,1.456-0.607,2.208-1.012c1.824-0.984,2.34-4.488,5.473-2.934c2.959,1.469,0.863,4.145,1.415,6.633
		c-1.868-4.727-3.636-3.654-5.891-0.611c-2.908,3.928-1.452,8.352-1.969,12.549c-0.216,1.76,0.9,4.377-2.512,4.303
		c0-3.412,0-6.824,0-10.236c-0.161,5.674-5.399-0.016-6.495,3.318C204.025,82.875,205.017,86.152,207.736,88.195z M192.104-47.226
		c-0.418-0.84-1.35-1.346-1.792-0.563c-0.621,1.1,0.729,0.899,1.316,1.163c0.697,0.328,1.389,0.67,2.105,0.949
		c0.041,0.016,0.469-0.556,0.399-0.725C193.757-47.321,192.89-47.207,192.104-47.226z M133.704,137.326
		c-0.846,0.291-1.691,0.584-2.77,0.955c1.392,0.91,2.39,0.922,3.285-0.125c0.499-0.199,1.322-0.295,0.859-1.072
		C134.605,136.287,134.126,136.988,133.704,137.326z M174.993-33.12c0.894-0.434,2.099,1.816,2.723-0.256
		c0.19-0.633-0.2-1.442-0.325-2.171c-0.739,0.864-2.858,0.318-2.427,2.379c-1.111-0.468-1.611,0.154-1.937,1.087
		c-1.728,0.146-3.456,0.291-5.867,0.495c2.711,1.662,4.439,1.349,5.975-0.343C174.011-31.925,174.725-32.176,174.993-33.12z
		 M118.715,14.222c0.581,0.242,1.15,0.649,1.744,0.689c0.906,0.062,2.107,0.539,2.603-0.628c0.294-0.691,0.276-1.62-0.467-2.249
		c-1.934-1.636-1.423,2.567-3.187,1.333c-2.247-0.397-3.861-2.094-5.77-3.114C112.615,15.395,116.098,14.203,118.715,14.222z
		 M83.024,142.861c-1.612-2.504-0.497-4.539,0.96-6.658c0.645-0.938,2.342-2.289,0.718-3.332c-1.569-1.006-2.048,1.057-2.795,2.008
		c-0.613,0.779-1.029,1.715-1.641,2.496c-2.93,3.75-1.334,5.232,2.718,5.527c-0.015,3.029,2.521,0.621,3.615,1.699
		c2.184,2.154,2.317,2.033,3.28-0.859c0.413-1.242,0.874-2.48,1.137-3.756c0.242-1.176,1.246-2.615-0.436-3.477
		c-1.386-0.713-2.04,0.623-2.802,1.385C86.159,139.514,84.605,141.201,83.024,142.861z M108.948,146.91
		c1.167,1.867-0.36,3.35-0.788,4.949c-0.909,3.404-1.093,3.691,3.111,4.973c2.991,0.912,1.235-2.016,1.792-3.117
		c0.218-0.434,0.299-0.977,0.61-1.313c1.348-1.447,2.218-2.971,0.687-4.752c-1.586-1.848-3.516-1.65-5.493-0.658
		c-2.123-3.893-6.166-4.73-9.626-1.871c0-1.195,0.127-2.314-0.036-3.389c-0.16-1.053-1.515-1.334-1.735-0.672
		c-1.039,3.111-2.16,6.408-1.348,9.635c0.403,1.598,1.882,0.375,2.646-0.504c1.562-1.797,3.084-3.629,4.623-5.445
		c0.173,2.549-0.486,4.563-1.326,6.498c-1.004,2.314,0.504,3.246,2.181,3.416c2.076,0.207,2.223-0.949,0.878-2.359
		C107.663,151.402,105.016,146.826,108.948,146.91z M200.919,148.793c1.102-0.02,1.85,2.195,2.881,0.932
		c1.649-2.02-1.679-3.559-1.092-5.648c2.916-0.424,1.793,5.762,5.811,3.412c4.475-2.615-0.944-5.25-0.188-7.846
		c1.017-0.082,1.35,0.471,1.737,1.023c2.441,3.471,4.208,4.16,6.55,1.779c2.167-2.205-1.612-2.439-1.965-3.947
		c-0.188-0.803-0.164-1.689-0.502-2.416c-0.91-1.953-3.022-3.211-4.25-1.418c-2.133,3.117-5.338,3.055-8.14,4.357
		c-2.179,1.012-4.337,3.119-1.874,6.211c0.763,0.955,1.603,2.172,1.125,3.646c-1.354,0.639-2.267,0.646-3.164-0.979
		c-0.978-1.77-1.145-5.744-3.557-4.582c-2.003,0.965,1.037,3.82,1.483,5.934c0.067,0.318,0.145,0.678,0.34,0.918
		c0.724,0.889,0.546,2.793,2.61,2.195C200.613,151.818,201.49,150.785,200.919,148.793z M152.977,95.635
		c1.366,0.68,2.684,0.754,3.984-0.277c-1.178-1.037-2.567-0.383-3.788-0.689c-2.724-3.496-2.217-7.203-0.346-10.742
		c4.262-8.059,4.919-16.777,5.104-25.615c0.063-2.99-0.044-5.998,0.229-8.969c0.304-3.293,1.057-6.543,1.403-9.834
		c0.14-1.326,4.293-0.307,1.597-3.232c-1.645-1.783-1.9-3.492-5.307-1.568c-4.96,2.803-10.852,3.945-16.322,5.865
		c-2.428,0.852-3.657,1.855-2.948,5.213c1.985,9.393,4.869,18.65,5.33,28.326c0.266,5.576-3.496,10.217-8.707,10.854
		c-11.778,1.438-22.024,7.477-33.126,10.949c-4.446,0.988-9.024,1.576-12.882,4.371c4.568-0.586,9.3-0.682,12.819-4.432
		c3.673,1.621,7.387-0.207,11.089,0.141c11.18,1.049,22.314,0.949,33.338-1.566C147.416,93.75,150.316,94.02,152.977,95.635z
		 M150.105-5.835c-0.46-0.014-0.921-0.028-1.381-0.042c-2.279,9.638-2.896,10.941-9.502,14.148c-2.735,1.329-4.248,3.38-6.987,6.344
		c5.669-1.642,10.159-2.66,14.386-4.343c1.207-0.48,3.608-0.837,3.522-3.408C150.003,2.635,150.105-1.602,150.105-5.835z
		 M114.69,124.227c1.842,2.541,3.053,4.951,6.7,3.332c-4.238-2.383-4.214-4.926-0.034-7.33c-3.813-1.844-4.844,1.582-6.838,2.965
		c-0.709-2.711-2.14-4.098-4.742-3.52c-2.106,0.469-2.794,2.137-2.833,4.117c-0.039,1.963,0.541,3.707,2.588,4.305
		C112.337,128.914,113.789,127.313,114.69,124.227z M150.001,157.395c-0.396-2.271-0.755-5.025-3.674-5.072
		c-3.581-0.055-4.024,3.039-3.972,5.744c0.046,2.35,0.652,4.998,3.756,4.883C149.426,162.826,149.595,159.971,150.001,157.395z
		 M122.508,153.1c0.057-2.154-0.756-3.932-3.306-4.537c-3.209-0.764-2.153,2.162-2.879,3.447c-0.542,0.959-0.543,2.217-0.813,3.336
		c-0.257,1.063-1.152,2.252,0.224,3.082c1.34,0.811,2.852,0.834,4.218,0C121.83,157.281,122.289,155.357,122.508,153.1z
		 M130.954,158.137c-0.311,2.232-0.479,3.926,2.112,3.832c3.526-0.127,4.349-2.617,4.506-5.42c0.142-2.516-0.744-5.146-3.624-4.883
		C129.478,152.074,131.965,156.293,130.954,158.137z M93.891,119.551c-2.593,0.037-3.604,1.891-3.688,4.174
		c-0.082,2.262,0.746,4.357,3.448,4.553c3.002,0.215,4.075-1.859,4.091-4.387C97.756,121.584,96.775,119.729,93.891,119.551z
		 M164.706,158.006c1.871,0.598,0.387,3.662,2.494,3.221c2.076-0.436,0.71-2.471,0.841-3.785c0.081-0.807-0.002-1.709-0.296-2.457
		c-0.511-1.297,0.247-3.525-1.567-3.779c-2.358-0.33-0.416,2.764-1.702,3.426c-1.625-0.559-0.581-3.23-2.564-2.734
		c-1.888,0.473-0.749,2.217-0.754,3.393c-0.004,0.979,0.232,1.99,0.54,2.93c0.416,1.271-0.565,3.641,1.58,3.57
		C165.522,161.717,163.521,159.262,164.706,158.006z M99.045,123.475c-1.925,5.617,2.839,4.023,4.928,4.406
		c2.761,0.508,1.447-2.201,1.849-3.559c1.604-5.426-3.38-3.889-5.322-4.324C97.86,119.408,99.467,122.354,99.045,123.475z
		 M183.993,156.783c-2.535-1.713-1.137-4.787-2.258-7.051c-0.901-1.818-2.78-1.395-4.418-0.973c-1.995,0.51-1.308,1.904-0.988,3.15
		c0.327,1.275,0.536,2.609,1.068,3.797c0.497,1.105,0.844,3.727,1.523,3.066c1.6-1.551,3.047-0.854,4.601-0.939
		C183.658,157.826,183.766,157.309,183.993,156.783z M184.711,150.639c1.191,1.688-0.904,4.623,1.908,6.238
		c0.813-2.664,5.571-0.609,4.99-2.908c-0.73-2.883-2.318-6.688-5.495-7.588C183.996,145.781,185.104,148.813,184.711,150.639z
		 M129.17,156.154c-1.06-1.76,1.09-5.924-2.124-5.352c-3.128,0.557-3.753,5.178-4.246,8.17c-0.246,1.5,3.571,1.219,5.302,1.719
		C129.891,161.209,128.411,157.795,129.17,156.154z M176.391,159.5c-0.129-2.738-1.812-4.891-2.78-7.291
		c-0.454-1.125-1.325-3.242-2.641-1.766c-2.25,2.527-0.762,6.02-1.059,9.082c-0.092,0.939,1.154,1.826,1.437,1.082
		C172.545,157.439,174.877,160.766,176.391,159.5z M105.361,108.914c-0.015-0.424-0.029-0.846-0.044-1.268
		c-5.962-1.701-12.084,0.947-18.168-0.301c1.37,1.205,2.939,1.969,4.29,3.016c0.313,0.242-3.088,0.77-0.543,2.031
		c1.099,0.545,2.607-0.629,2.719-1.596c0.343-2.986,2.472-1.746,3.888-1.836C100.113,108.795,102.74,108.914,105.361,108.914z
		 M131.514,127.264c1.647-0.012,2.594-1.617,2.664-4.766c0.052-2.291-1.386-2.764-3.213-2.879c-3.801-0.24-2.656,2.641-2.656,4.514
		C128.31,125.811,127.224,129.066,131.514,127.264z M193.807,128.451c-1.562-8.695-1.824-9.326-3.96-8.787
		c-3.873,0.979-1.791,4.221-1.755,6.203C188.177,130.584,191.916,126.693,193.807,128.451z M210.776,123.67
		c0.524,1.756-1.306,4.76,2.677,4.541c2.639-0.146,4.024-1.48,4.117-4.031c0.115-3.162-1.953-4.404-4.7-4.516
		C209.577,119.533,211.35,122.25,210.776,123.67z M195.719,123.826c0.668,1.455-1.396,4.316,2.2,4.346
		c2.846,0.021,4.259-1.49,4.222-4.32c-0.032-2.561-1.342-3.996-3.903-4.207C194.67,119.352,196.135,122.105,195.719,123.826z
		 M203.141,128.598c2.358-1.875,4.445-0.992,7.331-0.305c-1.818-3.307-0.708-8.01-4.105-8.246c-2.673-0.184-2.097,4.523-3.219,6.943
		C203.088,127.119,203.141,127.299,203.141,128.598z M110.933,97.875c-1.542,0.582-4.336,0.084-4.12,2.824
		c0.188,2.396,2.672,1.184,4.112,1.27c2.085,0.123,4.035-1.268,6.247-0.76c1.099,0.252,2.045-0.127,1.815-1.512
		c-0.176-1.061-0.913-1.951-2.037-1.639C114.977,98.605,113.081,98.893,110.933,97.875z M122.465,123.609c-0.022,0-0.045,0-0.068,0
		c0,0.66,0.031,1.324-0.006,1.982c-0.102,1.828,0.57,2.842,2.569,2.611c3.384-0.391,1.363-1.504,0.344-2.49
		c1.733-1.164-0.098-2.816,0.45-3.85c0.554-1.043,1.963-1.713-0.219-2.164c-1.196-0.248-2.802-0.566-3.054,1.436
		C122.379,121.947,122.465,122.783,122.465,123.609z M180.79,120.742c0.254-0.41-0.271-0.865-0.636-0.879
		c-0.575-0.021-1.46,0.135-1.692,0.525c-0.75,1.266-1.087,3.887-2.365,0.27c-0.33-0.936-1.119-1.199-1.953-0.709
		c-0.715,0.42-0.402,1.184-0.205,1.77c0.577,1.717,1.17,3.432,1.861,5.104c0.758,1.834,2.008,1.785,2.79,0.195
		C179.527,125.115,180.024,122.994,180.79,120.742z M150.386,121.043c0.228-0.961-0.313-1.273-1-1.404
		c-1-0.188-1.964-0.1-2.743,0.656c-0.972,0.943-0.887,2.035-0.397,3.166c0.449,1.039,4.15,1.779,0.244,3.26
		c-0.595,0.225-0.069,1.15,0.621,1.393c1.163,0.408,2.274,0.264,3.214-0.568c0.995-0.883,1.064-1.965,0.526-3.123
		C150.332,123.305,146.927,122.535,150.386,121.043z M168.381,127.828c-0.991-2.848,0.301-6.986-3.251-7.895
		c-2.142-0.549-2.335,2.801-2.392,4.646C162.608,128.738,166.435,126.564,168.381,127.828z M220.594,126.619
		c-0.749,0.363-1.659,1.051-1.631,2.383c0.035,1.654,0.967,2.633,2.49,3.285c1.044,0.445,3.252-0.6,2.977,1.381
		c-0.193,1.396-1.305,2.709,1.065,2.318c1.632-0.268,2.08-1.863,1.746-3.545c-0.647-3.258-6.271-1.697-5.786-6.018
		C221.295,126.461,221.135,126.496,220.594,126.619z M80.038,129.191c-4.911-1.441-5.499-1.184-8.146,2.994
		c-0.264,0.416-0.602,0.787-0.926,1.16c-0.663,0.766-0.613,1.555,0.158,2.111c0.606,0.438,1.35,0.121,1.682-0.477
		C74.34,132.223,77.469,131.445,80.038,129.191z M216.85,129.045c-1.055,1.77-3.411,2.006-2.705,3.426
		c1.301,2.617,3.145,5.037,5.115,7.219c0.931,1.029,2.164-0.305,2.871-1.104c0.761-0.861,0.727-1.893-0.79-1.941
		c-1.437-0.047-1.056-1.563-1.325-1.748C218.167,133.629,217.557,131.662,216.85,129.045z M153.665,151.91
		c-0.777,0.506-1.802,0.854-2.304,1.566c-0.928,1.318-0.686,2.732,0.255,4.105c0.612,0.893,2.772,1.201,1.474,2.846
		c-0.481,0.609-2.096,0.432-1.322,1.871c0.443,0.824,1.394,0.789,2.202,0.57c1.203-0.324,1.967-1.135,2.213-2.379
		c0.532-2.695-3.854-4.67-1.128-7.688C154.657,152.547,154.26,152.293,153.665,151.91z M181.983,123.771
		c0.007,4.281,0.054,4.365,2.363,4.426c1.111,0.029,0.901-0.025,1.686-6.813c0.252-2.188-0.763-1.742-1.785-1.754
		C180.736,119.586,182.443,122.35,181.983,123.771z M136.027,123.203c0,1.488-0.228,2.705,0.052,3.791
		c0.465,1.811,2.197,1.377,3.308,1.096c1.622-0.41,0.363-1.166,0.106-2.033c-0.4-1.35-0.2-2.973,0.11-4.398
		c0.15-0.697,1.239-1.34,0.005-1.857c-0.702-0.295-1.675-0.291-2.421-0.066C135.064,120.369,136.356,122.25,136.027,123.203z
		 M89.845,120.275c-4.221-0.973-6.186,0.4-6.125,3.689c0.058,3.197,1.943,4.631,6.037,3.834
		C86.271,125.287,83.756,122.861,89.845,120.275z M164.188,139.006c0.14-0.24,0.278-0.482,0.417-0.723c-7.142,0-14.283,0-21.426,0
		c-0.016,0.24-0.031,0.482-0.047,0.723C150.151,139.006,157.17,139.006,164.188,139.006z M141.435,101.553
		c-0.037-0.412-0.073-0.826-0.109-1.238c-3.852,0.025-7.723-0.076-11.202,2.361C133.894,102.303,137.664,101.928,141.435,101.553z
		 M116.883,114.549c-2.994-2.098-6.038-2.064-9.125,0C110.8,114.549,113.842,114.549,116.883,114.549z M159.199,94.604
		c3.46-0.287,6.92-0.574,10.38-0.863C165.98,91.689,162.519,91.584,159.199,94.604z M79.01,113.107
		c0.927,3.357,5.4,0.436,4.758,3.271c-0.474,2.09,0.079,1.631,1.196,1.635c1.878,0.006,1.572-1.217,1.194-2.34
		C84.873,111.857,81.859,113.264,79.01,113.107z M162.446,127.615c-4.101-1.381-3.21-3.814-3.408-5.963
		c-0.055-0.584-0.32-1.217-0.684-1.672c-0.144-0.18-1.111-0.07-1.206,0.137c-0.991,2.168-0.725,4.543-0.332,6.701
		C157.254,129.215,159.274,128.053,162.446,127.615z M191.307-30.403c-1.216,3.32-1.691,5.132,0.308,6.631
		c0.631,0.474,1.657,1.021,2.167,0.093C195.206-26.275,192.478-27.328,191.307-30.403z M144.418,123.982
		c-0.517-1.387,0.94-4.006-1.318-3.953c-2.158,0.049-1.037,2.639-1.086,4.068c-0.045,1.281-0.896,3.66,0.978,3.695
		C145.535,127.84,143.801,125.262,144.418,123.982z M143.865,132.777c1.972,0.535,2.735-0.736,3.791-1.461
		C145.97,130.861,144.624,131.041,143.865,132.777z M138.644,135.033c-0.209,0.117-0.427,0.236-0.644,0.357
		c0.111,0.111,0.246,0.33,0.329,0.313c0.235-0.053,0.448-0.201,0.671-0.313C138.889,135.279,138.777,135.168,138.644,135.033z
		 M141,134.391c-0.111-0.111-0.246-0.332-0.329-0.313c-0.235,0.053-0.448,0.201-0.671,0.313c0.111,0.111,0.244,0.33,0.329,0.313
		C140.565,134.654,140.781,134.508,141,134.391z M142.856,133.246c-0.134-0.133-0.245-0.244-0.356-0.355
		c-0.111,0.223-0.261,0.436-0.313,0.67c-0.019,0.084,0.201,0.219,0.313,0.33C142.62,133.674,142.74,133.455,142.856,133.246z
		 M136.356,136.746c0.209-0.115,0.427-0.236,0.644-0.355c-0.111-0.111-0.246-0.332-0.329-0.313
		c-0.235,0.053-0.448,0.201-0.671,0.313C136.111,136.502,136.223,136.613,136.356,136.746z"/>
</g>
<g id="Capa_2_1_">
	<path fill-rule="evenodd" clip-rule="evenodd" fill="#FEFEFE" d="M32.769,30.264c0.045,0.494-0.395,0.359-0.518,0.281
		c-0.346-0.22-0.603-0.335-0.767,0.15c-0.182,0.531-0.402,0.126-0.553,0.008c-0.485-0.382-0.683-0.953-0.863-1.511
		c-0.361-1.113-0.953-2.093-1.799-2.879c-0.848-0.789-1.449-1.781-2.241-2.723c-0.403,1.417-0.712,2.713-1.15,3.964
		c-0.263,0.753-0.06,1.264,0.477,1.735c0.787,0.693,1.704,1.076,2.754,1.149c0.269,0.018,0.699-0.06,0.645,0.371
		c-0.044,0.353-0.427,0.161-0.665,0.176c-0.461,0.03-0.942-0.085-1.394,0.133c0.104,0.368,0.338,0.286,0.504,0.27
		c1.96-0.189,3.916-0.031,5.874,0.043c0.356,0.014,0.708,0.055,0.888-0.402c0.192-0.487,0.532-0.082,0.721-0.004
		c1.378,0.58,2.873,0.644,4.308,0.896c0.946,0.167,1.981-0.293,3.004-0.179c0.422,0.048,0.85,0.038,1.274,0.055
		c-2.56,5.396-6.619,9.295-12.016,11.761c-11.113,5.077-24.309,1.158-30.92-9.123C0.208,34.243,0.11,34.035,0,33.835
		c1.303-0.156,2.581-0.461,3.793-0.939c0.886-0.35,0.95,0.203,1.178,0.756c0.323,0.779-0.282,0.661-0.674,0.773
		c-0.052,0.015-0.09,0.078-0.187,0.166c0.287,0.389,1.176-0.336,1.174,0.657c-0.001,0.617-0.313,0.75-0.865,0.843
		c0.438,0.41,0.854-0.04,1.202,0.267c-0.28,0.219-0.803,0.135-0.857,0.626c-0.253,0.136-0.646-0.045-0.9,0.471
		c0.44-0.128,0.787-0.044,1.058-0.324c0.165-0.096,0.32-0.217,0.496-0.284c0.783-0.297,0.783-0.29,0.378-0.909
		C5.744,35.858,5.7,35.76,5.693,35.668c-0.081-1.188-0.431-2.308-0.803-3.427c-0.232-0.697,0.039-1.113,0.784-1.073
		c2.376,0.128,3.996-1.261,5.639-2.685c0.952-0.825,2.124-1.33,3.26-1.88c0.615-0.298,0.807,0.387,1.451,0.514
		c-0.479-0.75-0.906-1.308-1.216-1.924c-0.557-1.107-1.043-2.25-1.56-3.377c-0.109-0.238-0.067-0.726-0.503-0.119
		c-0.15,0.209-0.873-0.168-0.948-0.708c-0.182-1.298-0.336-2.602-0.468-3.906c-0.098-0.965,0.34-1.772,0.819-2.57
		c0.188-0.313,0.356-0.172,0.559-0.095c0.071,0.024,0.195,0.087,0.208,0.07c0.106-0.147-0.009-0.205-0.126-0.252
		c-0.224-0.299-0.705-0.552-0.09-0.97c0.191,0.15,0.103,0.655,0.639,0.667c-0.41-0.696-0.077-1.169,0.315-1.755
		c1.036-1.549,2.31-2.877,3.58-4.216c1.442-1.521,3.175-2.38,5.32-2.315c0.536,0.017,1.022,0.11,1.499,0.366
		c0.897,0.482,1.438,0.301,1.885-0.583c0.469-0.928,1.007-1.09,2.131-0.632c-0.16,0.459-0.781-0.033-0.949,0.512
		c0.374,0.156,0.811-0.123,1.164,0.168c0.362,0.298,0.355,0.723,0.485,1.115c0.142-0.501,0.454-0.897-0.121-1.458
		c-0.259-0.254-1.229-1.29,0.124-1.771c0.02-0.992,0.801-0.897,1.477-1.03c-0.494-0.026-0.615-1.547-1.376-0.284
		c-0.018,0.029-0.177-0.007-0.26-0.039c-1.274-0.492-2.407-0.09-3.538,0.503c0.572-0.872,1.438-1.302,2.436-1.363
		C28.251,1.106,28.88,0.98,29.396,0c0.223,1.54,1.212,1.91,2.221,2.258c1.038,0.358,1.499,1.2,1.802,2.167
		c0.125,0.396-0.028,0.875,0.395,1.187c0.207,0.152,0.09,0.345-0.047,0.503c-0.042,0.049-0.075,0.121-0.129,0.146
		c-0.551,0.25-0.946,1.068-1.562,0.828c-0.549-0.215-0.062-0.984-0.24-1.479c0.323-0.338,0.227-0.7-0.013-1.067
		c0,0.354,0,0.706,0,1.058c-0.505,0.718-0.803-0.009-1.182-0.17c-0.245-0.431,0.01-1.059-0.574-1.355
		c0.291,0.408-0.474,1.249,0.592,1.338c-0.492,0.437-0.127,0.797,0.106,1.166c0.301,0.474,0.66,0.825-0.1,1.361
		c-0.514,0.362-0.827,1.08-1.396,1.477c-0.211,0.146-0.571,0.534-0.646-0.148c-0.017-0.151-0.23-0.389-0.282-0.231
		c-0.231,0.7-1.034-0.772-1.068,0.301c-0.011,0.333-0.063,0.479-0.423,0.452c-0.482-0.036-0.674-0.351-0.789-0.748
		c-0.065-0.224-0.299-0.568,0.055-0.65c0.756-0.173,0.708-1.259,1.55-1.279c-0.167-0.127-0.141-0.306-0.132-0.481
		C27.59,6.59,27.644,6.55,27.699,6.51c-0.018-0.022-0.035-0.045-0.051-0.068c-0.044,0.054-0.089,0.108-0.133,0.162
		c-0.569,0.273-1.181,0.49-1.624,0.962c-0.463,0.494-0.485-0.431-0.926-0.173c0.272,0.551,0.575,1.124,0.737,1.752
		c0.174,0.679,0.309,1.333-0.131,1.975c-0.211,0.31-0.203,0.667-0.127,1.038c0.335,1.645,0.274,3.313,0.29,4.979
		c0.004,0.298-0.167,0.657,0.174,0.901c0.046,0.036,0.115,0.113,0.132,0.103c0.123-0.073,0.073-0.145-0.022-0.205
		c-0.041-2.128,0.168-4.266-0.396-6.508c0.863,0.807,1.067,1.552,0.707,2.197c1.919,0.237,2.636,1.508,1.935,3.373
		c-0.253,0.671-0.404,1.379-0.64,2.057c-0.072,0.205-0.145,0.274,0.099,0.439c0.976,0.66,1.367,1.718,1.739,2.769
		c0.376,1.061,0.895,2.015,1.678,2.848c0.573,0.61,1.614,0.431,2.016,1.32c0.112,0.25,0.286-0.119,0.435-0.199
		c0.359-0.193,0.46-0.883,1.076-0.577c0.583,0.29,0.171,0.815,0.279,1.305c-0.368-0.93-0.716-0.718-1.159-0.12
		c-0.573,0.773-0.286,1.644-0.388,2.47c-0.042,0.346,0.178,0.86-0.494,0.846c0-0.671,0-1.343,0-2.013
		c-0.031,1.115-1.063-0.004-1.278,0.652C32.038,29.218,32.233,29.862,32.769,30.264z M29.693,3.622
		c-0.083-0.166-0.266-0.265-0.353-0.111c-0.122,0.216,0.144,0.177,0.26,0.229c0.136,0.064,0.272,0.131,0.413,0.187
		c0.008,0.002,0.093-0.11,0.078-0.143C30.018,3.603,29.848,3.625,29.693,3.622z M18.204,39.931
		c-0.167,0.057-0.333,0.114-0.545,0.188c0.274,0.18,0.47,0.181,0.646-0.024c0.098-0.039,0.26-0.058,0.169-0.211
		C18.381,39.726,18.287,39.864,18.204,39.931z M26.327,6.397c0.175-0.085,0.413,0.357,0.535-0.05
		c0.037-0.125-0.039-0.284-0.063-0.427c-0.146,0.17-0.563,0.063-0.478,0.468c-0.219-0.091-0.317,0.03-0.381,0.214
		c-0.34,0.028-0.68,0.057-1.154,0.098c0.533,0.327,0.874,0.265,1.176-0.067C26.134,6.632,26.274,6.583,26.327,6.397z M15.255,15.711
		c0.114,0.047,0.227,0.128,0.343,0.136c0.179,0.012,0.415,0.106,0.512-0.124c0.058-0.137,0.054-0.319-0.092-0.442
		c-0.38-0.322-0.28,0.505-0.627,0.262c-0.442-0.078-0.76-0.412-1.135-0.612C14.055,15.941,14.74,15.708,15.255,15.711z M8.233,41.02
		c-0.317-0.493-0.098-0.893,0.188-1.31c0.127-0.186,0.46-0.451,0.141-0.655c-0.309-0.199-0.403,0.207-0.549,0.395
		c-0.121,0.153-0.203,0.337-0.323,0.491c-0.576,0.737-0.262,1.028,0.535,1.087c-0.002,0.597,0.496,0.122,0.711,0.335
		c0.43,0.423,0.456,0.399,0.646-0.17c0.081-0.244,0.171-0.487,0.224-0.738c0.047-0.231,0.245-0.515-0.086-0.685
		c-0.272-0.141-0.401,0.123-0.551,0.272C8.85,40.36,8.544,40.693,8.233,41.02z M13.333,41.816c0.23,0.366-0.071,0.658-0.155,0.973
		c-0.179,0.67-0.215,0.728,0.612,0.979c0.588,0.179,0.243-0.397,0.353-0.614c0.042-0.085,0.059-0.191,0.12-0.258
		c0.265-0.285,0.437-0.585,0.135-0.936c-0.313-0.363-0.692-0.324-1.081-0.129c-0.417-0.767-1.213-0.931-1.894-0.368
		c0-0.234,0.025-0.455-0.007-0.667c-0.032-0.207-0.298-0.262-0.341-0.132c-0.205,0.612-0.425,1.261-0.265,1.896
		c0.08,0.314,0.37,0.074,0.521-0.1c0.307-0.353,0.606-0.714,0.91-1.071c0.034,0.502-0.096,0.897-0.261,1.278
		c-0.197,0.456,0.099,0.64,0.429,0.673c0.408,0.041,0.437-0.188,0.172-0.465C13.081,42.699,12.56,41.799,13.333,41.816z
		 M31.427,42.187c0.218-0.004,0.364,0.432,0.567,0.183c0.325-0.396-0.33-0.7-0.215-1.11c0.573-0.084,0.353,1.133,1.144,0.671
		c0.88-0.515-0.186-1.033-0.037-1.543c0.2-0.017,0.266,0.092,0.342,0.201c0.48,0.683,0.828,0.818,1.289,0.35
		c0.426-0.434-0.318-0.48-0.387-0.776c-0.037-0.158-0.033-0.332-0.099-0.476c-0.18-0.385-0.595-0.631-0.837-0.279
		c-0.42,0.613-1.05,0.602-1.602,0.857c-0.428,0.199-0.853,0.614-0.368,1.222c0.149,0.188,0.314,0.428,0.222,0.718
		c-0.267,0.126-0.446,0.128-0.624-0.192c-0.191-0.349-0.224-1.131-0.699-0.901c-0.394,0.189,0.204,0.752,0.292,1.167
		c0.014,0.063,0.028,0.134,0.067,0.181c0.142,0.175,0.107,0.55,0.513,0.433C31.367,42.781,31.539,42.578,31.427,42.187z
		 M21.996,31.729c0.269,0.133,0.528,0.147,0.784-0.056c-0.231-0.203-0.505-0.075-0.746-0.136c-0.536-0.687-0.436-1.416-0.067-2.113
		c0.838-1.585,0.967-3.301,1.004-5.039c0.012-0.588-0.009-1.18,0.045-1.764c0.06-0.648,0.208-1.287,0.276-1.935
		c0.027-0.261,0.844-0.06,0.313-0.636c-0.323-0.351-0.373-0.687-1.042-0.308c-0.977,0.552-2.136,0.776-3.212,1.153
		c-0.478,0.167-0.72,0.365-0.58,1.026c0.391,1.848,0.958,3.669,1.049,5.573c0.052,1.098-0.688,2.011-1.713,2.136
		c-2.317,0.283-4.333,1.471-6.517,2.154c-0.875,0.193-1.776,0.31-2.535,0.859c0.899-0.114,1.83-0.134,2.522-0.872
		c0.723,0.319,1.454-0.04,2.182,0.028c2.2,0.206,4.39,0.187,6.559-0.309C20.901,31.357,21.472,31.41,21.996,31.729z M21.431,11.765
		c-0.09-0.003-0.181-0.005-0.272-0.008c-0.448,1.896-0.57,2.152-1.869,2.783c-0.538,0.262-0.835,0.665-1.375,1.248
		c1.116-0.323,1.999-0.523,2.831-0.854c0.237-0.095,0.71-0.165,0.693-0.671C21.41,13.432,21.431,12.598,21.431,11.765z
		 M14.463,37.354c0.363,0.5,0.601,0.974,1.318,0.655c-0.834-0.469-0.829-0.969-0.007-1.442c-0.75-0.362-0.953,0.312-1.345,0.583
		c-0.139-0.532-0.421-0.806-0.933-0.692c-0.415,0.093-0.55,0.421-0.558,0.81c-0.008,0.387,0.106,0.729,0.509,0.848
		C14,38.275,14.286,37.96,14.463,37.354z M21.41,43.879c-0.078-0.447-0.148-0.988-0.723-0.998c-0.705-0.012-0.792,0.598-0.781,1.13
		c0.009,0.462,0.128,0.983,0.739,0.96C21.296,44.947,21.33,44.386,21.41,43.879z M16.001,43.033c0.011-0.424-0.149-0.773-0.65-0.893
		c-0.631-0.15-0.424,0.426-0.566,0.679c-0.106,0.188-0.106,0.437-0.16,0.656c-0.051,0.209-0.227,0.443,0.043,0.606
		c0.264,0.159,0.561,0.164,0.83,0C15.868,43.856,15.958,43.478,16.001,43.033z M17.663,44.024c-0.061,0.439-0.094,0.772,0.416,0.754
		c0.694-0.025,0.856-0.515,0.887-1.066c0.028-0.494-0.146-1.013-0.713-0.961C17.372,42.831,17.862,43.662,17.663,44.024z
		 M10.371,36.433c-0.51,0.008-0.709,0.372-0.726,0.821c-0.016,0.445,0.146,0.857,0.678,0.896c0.591,0.042,0.802-0.366,0.805-0.863
		C11.131,36.834,10.938,36.469,10.371,36.433z M24.303,43.999c0.368,0.117,0.076,0.72,0.491,0.634
		c0.408-0.086,0.14-0.486,0.165-0.745c0.016-0.158,0-0.336-0.059-0.483c-0.1-0.255,0.05-0.693-0.308-0.744
		c-0.465-0.064-0.082,0.544-0.335,0.675c-0.319-0.109-0.114-0.636-0.505-0.538c-0.371,0.094-0.147,0.437-0.148,0.667
		c-0.001,0.193,0.046,0.392,0.106,0.577c0.082,0.25-0.111,0.716,0.311,0.702C24.463,44.729,24.069,44.246,24.303,43.999z
		 M11.385,37.205c-0.378,1.104,0.559,0.791,0.97,0.866c0.543,0.101,0.285-0.433,0.364-0.699c0.315-1.067-0.665-0.766-1.047-0.851
		C11.152,36.405,11.468,36.984,11.385,37.205z M28.098,43.758c-0.499-0.337-0.225-0.941-0.444-1.387
		c-0.177-0.358-0.547-0.274-0.869-0.191c-0.393,0.1-0.258,0.375-0.194,0.62c0.064,0.251,0.105,0.514,0.21,0.746
		c0.098,0.218,0.166,0.733,0.3,0.604c0.314-0.305,0.6-0.168,0.905-0.185C28.032,43.963,28.053,43.861,28.098,43.758z M28.238,42.549
		c0.234,0.333-0.178,0.91,0.376,1.229c0.159-0.524,1.097-0.12,0.981-0.573c-0.145-0.567-0.456-1.315-1.081-1.492
		C28.098,41.594,28.315,42.19,28.238,42.549z M17.312,43.635c-0.208-0.347,0.215-1.166-0.418-1.053
		c-0.615,0.109-0.738,1.018-0.835,1.606c-0.048,0.296,0.703,0.24,1.043,0.339C17.454,44.629,17.162,43.957,17.312,43.635z
		 M26.602,44.292c-0.025-0.538-0.356-0.962-0.547-1.434c-0.09-0.222-0.261-0.638-0.52-0.348c-0.441,0.498-0.15,1.185-0.209,1.787
		c-0.017,0.185,0.229,0.358,0.283,0.213C25.846,43.888,26.304,44.542,26.602,44.292z M12.628,34.34
		c-0.003-0.083-0.006-0.165-0.009-0.248c-1.173-0.335-2.377,0.186-3.574-0.06c0.269,0.237,0.578,0.388,0.844,0.593
		c0.062,0.048-0.608,0.152-0.107,0.399c0.216,0.107,0.513-0.123,0.535-0.313c0.068-0.588,0.487-0.343,0.765-0.361
		C11.595,34.316,12.112,34.34,12.628,34.34z M17.772,37.951c0.324-0.003,0.511-0.319,0.524-0.938c0.01-0.45-0.272-0.544-0.632-0.565
		c-0.748-0.048-0.522,0.52-0.522,0.887C17.143,37.665,16.929,38.306,17.772,37.951z M30.028,38.184
		c-0.308-1.71-0.359-1.834-0.778-1.729c-0.763,0.193-0.353,0.831-0.346,1.221C28.921,38.604,29.656,37.839,30.028,38.184z
		 M33.366,37.244c0.104,0.345-0.257,0.936,0.526,0.894c0.521-0.03,0.793-0.292,0.811-0.794c0.023-0.621-0.384-0.867-0.924-0.889
		C33.132,36.43,33.48,36.964,33.366,37.244z M30.405,37.274c0.131,0.286-0.275,0.849,0.433,0.855c0.56,0.004,0.838-0.294,0.83-0.851
		c-0.006-0.504-0.265-0.786-0.768-0.827C30.197,36.395,30.486,36.936,30.405,37.274z M31.865,38.213
		c0.463-0.368,0.874-0.194,1.442-0.061c-0.358-0.649-0.14-1.575-0.809-1.622c-0.526-0.036-0.412,0.891-0.634,1.366
		C31.854,37.922,31.865,37.958,31.865,38.213z M13.724,32.169c-0.303,0.114-0.853,0.017-0.811,0.556
		c0.037,0.472,0.526,0.232,0.809,0.25c0.41,0.023,0.794-0.25,1.229-0.149c0.216,0.049,0.402-0.025,0.357-0.298
		c-0.035-0.208-0.18-0.384-0.4-0.322C14.52,32.313,14.146,32.369,13.724,32.169z M15.992,37.231c-0.004,0-0.008,0-0.013,0
		c0,0.13,0.006,0.261-0.001,0.391c-0.02,0.359,0.112,0.559,0.506,0.514c0.666-0.077,0.269-0.296,0.067-0.49
		c0.341-0.229-0.019-0.554,0.089-0.758c0.109-0.204,0.386-0.337-0.043-0.426c-0.235-0.048-0.551-0.111-0.601,0.282
		C15.976,36.904,15.992,37.069,15.992,37.231z M27.468,36.668c0.05-0.081-0.054-0.17-0.125-0.174
		c-0.113-0.003-0.288,0.027-0.334,0.104c-0.147,0.25-0.213,0.766-0.465,0.054c-0.064-0.185-0.221-0.236-0.385-0.14
		c-0.141,0.083-0.078,0.232-0.04,0.348c0.114,0.338,0.23,0.675,0.366,1.004c0.15,0.361,0.396,0.352,0.549,0.039
		C27.219,37.527,27.317,37.11,27.468,36.668z M21.486,36.727c0.045-0.189-0.063-0.25-0.197-0.276
		c-0.197-0.036-0.387-0.019-0.54,0.13c-0.191,0.186-0.174,0.4-0.078,0.622c0.089,0.205,0.817,0.351,0.048,0.642
		c-0.117,0.044-0.013,0.227,0.123,0.273c0.229,0.08,0.448,0.052,0.633-0.111c0.195-0.174,0.209-0.387,0.104-0.614
		C21.475,37.172,20.806,37.021,21.486,36.727z M25.026,38.062c-0.195-0.561,0.059-1.375-0.641-1.554
		c-0.421-0.107-0.459,0.552-0.47,0.915C23.89,38.241,24.643,37.813,25.026,38.062z M35.299,37.824
		c-0.148,0.071-0.327,0.206-0.321,0.469c0.007,0.325,0.189,0.518,0.49,0.646c0.205,0.088,0.639-0.117,0.585,0.272
		c-0.038,0.274-0.257,0.532,0.209,0.455c0.321-0.053,0.409-0.366,0.344-0.696c-0.127-0.642-1.232-0.334-1.138-1.185
		C35.437,37.793,35.404,37.8,35.299,37.824z M7.646,38.33c-0.966-0.283-1.082-0.233-1.603,0.589
		c-0.052,0.082-0.119,0.155-0.182,0.229c-0.131,0.15-0.121,0.306,0.031,0.415c0.119,0.087,0.266,0.023,0.331-0.094
		C6.524,38.927,7.14,38.773,7.646,38.33z M34.562,38.302c-0.208,0.348-0.67,0.395-0.532,0.673c0.256,0.516,0.619,0.991,1.007,1.42
		c0.183,0.203,0.426-0.059,0.564-0.216c0.15-0.17,0.144-0.372-0.155-0.383c-0.283-0.009-0.207-0.308-0.261-0.344
		C34.821,39.203,34.701,38.815,34.562,38.302z M22.13,42.8c-0.152,0.099-0.354,0.167-0.453,0.308
		c-0.183,0.26-0.135,0.538,0.05,0.808c0.121,0.176,0.545,0.236,0.29,0.561c-0.095,0.12-0.413,0.084-0.261,0.367
		c0.088,0.163,0.274,0.156,0.433,0.112c0.237-0.063,0.387-0.223,0.436-0.468c0.105-0.53-0.758-0.919-0.221-1.513
		C22.326,42.925,22.248,42.875,22.13,42.8z M27.702,37.264c0.001,0.843,0.011,0.859,0.465,0.871c0.22,0.005,0.178-0.005,0.331-1.341
		c0.051-0.43-0.149-0.343-0.35-0.345C27.457,36.439,27.792,36.983,27.702,37.264z M18.661,37.152c0,0.293-0.044,0.531,0.01,0.745
		c0.092,0.356,0.432,0.271,0.651,0.216c0.319-0.08,0.071-0.229,0.021-0.4c-0.079-0.266-0.039-0.585,0.021-0.865
		c0.03-0.137,0.244-0.264,0.001-0.365c-0.138-0.059-0.33-0.058-0.476-0.014C18.471,36.595,18.726,36.964,18.661,37.152z
		 M9.575,36.575c-0.831-0.19-1.217,0.08-1.205,0.727c0.011,0.629,0.382,0.911,1.188,0.754C8.872,37.562,8.377,37.085,9.575,36.575z
		 M24.2,40.261c0.028-0.047,0.056-0.095,0.083-0.142c-1.405,0-2.81,0-4.215,0c-0.003,0.047-0.006,0.095-0.009,0.142
		C21.439,40.261,22.821,40.261,24.2,40.261z M19.725,32.893c-0.007-0.081-0.015-0.163-0.021-0.244
		c-0.758,0.006-1.52-0.016-2.204,0.465C18.241,33.04,18.983,32.966,19.725,32.893z M14.894,35.448c-0.589-0.412-1.188-0.405-1.795,0
		C13.698,35.448,14.296,35.448,14.894,35.448z M23.22,31.524c0.681-0.056,1.36-0.112,2.042-0.169
		C24.554,30.951,23.872,30.931,23.22,31.524z M7.443,35.166c0.182,0.66,1.063,0.085,0.936,0.643
		c-0.093,0.412,0.016,0.321,0.236,0.322c0.369,0.001,0.309-0.239,0.235-0.46C8.597,34.92,8.004,35.196,7.443,35.166z M23.858,38.02
		c-0.806-0.271-0.632-0.75-0.67-1.173c-0.011-0.115-0.063-0.239-0.134-0.329c-0.03-0.035-0.219-0.014-0.238,0.026
		c-0.195,0.427-0.142,0.895-0.065,1.318C22.836,38.334,23.234,38.106,23.858,38.02z M29.536,6.931
		c-0.239,0.654-0.333,1.01,0.061,1.305c0.124,0.093,0.326,0.201,0.427,0.018C30.303,7.744,29.767,7.537,29.536,6.931z
		 M20.312,37.305c-0.102-0.272,0.185-0.788-0.259-0.777c-0.424,0.009-0.204,0.52-0.214,0.8c-0.009,0.252-0.176,0.721,0.192,0.728
		C20.531,38.063,20.19,37.557,20.312,37.305z M20.203,39.035c0.388,0.105,0.539-0.145,0.747-0.287
		C20.617,38.659,20.352,38.694,20.203,39.035z M19.176,39.479c-0.042,0.023-0.084,0.047-0.127,0.071
		c0.022,0.021,0.048,0.064,0.064,0.062c0.047-0.011,0.089-0.04,0.132-0.062C19.224,39.527,19.202,39.506,19.176,39.479z
		 M19.639,39.353c-0.022-0.022-0.049-0.065-0.064-0.061c-0.047,0.01-0.088,0.038-0.132,0.061c0.021,0.022,0.048,0.065,0.065,0.062
		C19.553,39.404,19.596,39.376,19.639,39.353z M20.004,39.128c-0.026-0.026-0.048-0.049-0.07-0.07
		c-0.022,0.044-0.051,0.086-0.061,0.132c-0.004,0.017,0.039,0.043,0.061,0.065C19.958,39.211,19.981,39.169,20.004,39.128z
		 M18.726,39.816c0.041-0.023,0.084-0.047,0.127-0.069c-0.022-0.022-0.049-0.066-0.065-0.063c-0.046,0.011-0.088,0.04-0.132,0.063
		C18.678,39.769,18.699,39.79,18.726,39.816z"/>
</g>
</svg>
